HIERARCHY
ROOT Pelvis
{
	OFFSET 0.000000 0.941512 0.000000
	CHANNELS 6 Xposition Yposition Zposition Zrotation Yrotation Xrotation 
	JOINT Pelvis_L_Hip
	{
		OFFSET 0.000000 0.000000 0.000000
		CHANNELS 3 Zrotation Yrotation Xrotation
		JOINT L_Hip
		{
			OFFSET 0.062321 -0.080322 -0.016990
			CHANNELS 3 Zrotation Yrotation Xrotation
			JOINT L_Knee
			{
				OFFSET 0.093051 -0.381305 -0.029784
				CHANNELS 3 Zrotation Yrotation Xrotation
				JOINT L_Ankle
				{
					OFFSET -0.010371 -0.431000 -0.033614
					CHANNELS 3 Zrotation Yrotation Xrotation
					End Site #name: L_Foot
					{
						OFFSET 0.069299 -0.038670 0.119418
					}
				}
			}
		}
	}
	JOINT Pelvis_R_Hip
	{
		OFFSET 0.000000 0.000000 0.000000
		CHANNELS 3 Zrotation Yrotation Xrotation
		JOINT R_Hip
		{
			OFFSET -0.055334 -0.094904 -0.002373
			CHANNELS 3 Zrotation Yrotation Xrotation
			JOINT R_Knee
			{
				OFFSET -0.064207 -0.384370 -0.019592
				CHANNELS 3 Zrotation Yrotation Xrotation
				JOINT R_Ankle
				{
					OFFSET 0.025418 -0.419734 -0.065953
					CHANNELS 3 Zrotation Yrotation Xrotation
					End Site #name: R_Foot
					{
						OFFSET -0.057233 -0.039888 0.132134
					}
				}
			}
		}
	}
	JOINT Pelvis_Spine1
	{
		OFFSET 0.000000 0.000000 0.000000
		CHANNELS 3 Zrotation Yrotation Xrotation
		JOINT Spine1
		{
			OFFSET -0.005562 0.124093 -0.043360
			CHANNELS 3 Zrotation Yrotation Xrotation
			JOINT Spine2
			{
				OFFSET 0.012244 0.139499 0.029894
				CHANNELS 3 Zrotation Yrotation Xrotation
				JOINT Spine3
				{
					OFFSET -0.002556 0.056561 0.009225
					CHANNELS 3 Zrotation Yrotation Xrotation
					JOINT Spine3_Neck
					{
						OFFSET 0.000000 0.000000 0.000000
						CHANNELS 3 Zrotation Yrotation Xrotation
						JOINT Neck
						{
							OFFSET -0.005205 0.217920 -0.024551
							CHANNELS 3 Zrotation Yrotation Xrotation
							End Site #name: Head
							{
								OFFSET 0.002365 0.091850 0.046637
							}
						}
					}
					JOINT Spine3_L_Collar
					{
						OFFSET 0.000000 0.000000 0.000000
						CHANNELS 3 Zrotation Yrotation Xrotation
						JOINT L_Collar
						{
							OFFSET 0.072225 0.116603 -0.009480
							CHANNELS 3 Zrotation Yrotation Xrotation
							JOINT L_Shoulder
							{
								OFFSET 0.115937 -0.058643 -0.021018
								CHANNELS 3 Zrotation Yrotation Xrotation
								JOINT L_Elbow
								{
									OFFSET 0.021994 -0.254722 -0.024492
									CHANNELS 3 Zrotation Yrotation Xrotation
									End Site #name: L_Wrist
									{
										OFFSET 0.048810 -0.240214 0.103329
									}
								}
							}
						}
					}
					JOINT Spine3_R_Collar
					{
						OFFSET 0.000000 0.000000 0.000000
						CHANNELS 3 Zrotation Yrotation Xrotation
						JOINT R_Collar
						{
							OFFSET -0.073372 0.120704 -0.024611
							CHANNELS 3 Zrotation Yrotation Xrotation
							JOINT R_Shoulder
							{
								OFFSET -0.108089 -0.054969 -0.020504
								CHANNELS 3 Zrotation Yrotation Xrotation
								JOINT R_Elbow
								{
									OFFSET -0.033684 -0.260739 0.009889
									CHANNELS 3 Zrotation Yrotation Xrotation
									End Site #name: R_Wrist
									{
										OFFSET -0.067980 -0.232763 0.118463
									}
								}
							}
						}
					}
				}
			}
		}
	}
}
MOTION
Frames: 11
Frame Time: 0.041667
0.006997 0.857668 -0.016795 -1.693746 -9.533459 5.558754 0.000000 0.000000 0.000000 -3.028534 5.712681 17.990288 8.036085 8.948476 -66.015798 143.461113 28.184518 151.596403 0.000000 0.000000 0.000000 3.698327 -3.744519 19.226414 1.837398 -0.588783 -73.823387 -129.641990 -39.915668 141.862396 0.000000 0.000000 0.000000 4.170436 3.479946 -32.721973 -4.135830 -1.202138 -37.158487 9.378544 -0.909062 78.278904 0.000000 0.000000 0.000000 -2.711586 0.719406 -103.692995 0.000000 0.000000 0.000000 33.602301 1.110977 6.646877 -32.115873 -3.420492 -32.998883 9.751267 15.260436 132.262446 0.000000 0.000000 0.000000 -27.979356 -7.364573 11.536320 22.781923 6.104709 -29.808922 -4.319211 -26.165406 112.641159 
0.006866 0.859099 -0.023264 -1.396220 -9.551379 5.185349 0.000000 0.000000 0.000000 -3.566581 6.016108 18.480695 7.845686 8.968855 -66.788148 140.091768 27.740696 153.288341 0.000000 0.000000 0.000000 4.204103 -3.842402 19.120217 0.442830 -1.319814 -73.621350 -141.726987 -45.035627 138.030200 0.000000 0.000000 0.000000 4.086542 3.366628 -32.032367 -2.700138 -0.996787 -39.658150 7.971238 0.190929 81.262966 0.000000 0.000000 0.000000 -2.860579 0.368670 -103.940705 0.000000 0.000000 0.000000 34.771857 2.360991 7.841695 -33.394957 -2.470630 -30.850926 15.678887 9.482869 131.769430 0.000000 0.000000 0.000000 -29.027186 -5.923794 10.543560 23.551210 5.098211 -26.887084 -8.446541 -24.515187 114.779983 
0.008022 0.874720 -0.037165 -0.635489 -9.290192 5.033371 0.000000 0.000000 0.000000 -5.307318 5.418838 15.440105 9.532074 9.147324 -63.127025 127.399076 30.940170 156.749405 0.000000 0.000000 0.000000 4.140691 -3.313333 16.173850 -0.584438 -1.846899 -70.375196 -139.911394 -40.311888 141.260862 0.000000 0.000000 0.000000 1.260681 3.219810 -32.355187 1.784035 -0.253556 -37.185830 6.204279 0.916084 79.881619 0.000000 0.000000 0.000000 -4.518677 -0.214580 -102.866176 0.000000 0.000000 0.000000 33.581861 2.215187 7.554485 -31.711480 -2.004809 -29.288725 21.349529 4.878422 134.288645 0.000000 0.000000 0.000000 -30.377892 -7.753062 12.288297 24.097889 4.883133 -25.252499 -12.223994 -23.636199 122.554435 
0.005125 0.924482 -0.065053 0.312843 -9.058916 4.627229 0.000000 0.000000 0.000000 -6.105501 3.086796 8.054351 11.207133 7.342293 -50.471562 91.584883 44.769692 156.258181 0.000000 0.000000 0.000000 4.935409 -2.158356 9.193561 -3.939412 -2.978030 -59.055575 -128.400740 -37.403666 143.557484 0.000000 0.000000 0.000000 0.492548 2.756602 -29.058962 -0.403207 -0.641911 -35.574624 8.474996 -0.639520 75.979851 0.000000 0.000000 0.000000 -14.648881 -4.321764 -99.918147 0.000000 0.000000 0.000000 29.859146 -0.253787 5.141938 -29.077902 -2.041461 -28.825507 13.612871 14.128019 141.816728 0.000000 0.000000 0.000000 -33.493273 -6.175397 12.056252 23.906161 4.211362 -22.077091 -10.700733 -26.256994 128.485817 
0.004366 0.966546 -0.085751 0.751155 -9.183983 4.247578 0.000000 0.000000 0.000000 -6.039435 1.467177 3.085688 11.868624 5.686105 -40.912150 80.767480 48.013257 155.345512 0.000000 0.000000 0.000000 4.853253 -1.049149 3.612241 -4.878287 -2.792390 -49.098394 -100.259621 -40.699547 140.348258 0.000000 0.000000 0.000000 0.538983 2.544135 -27.244963 -2.222024 -0.879607 -34.284483 10.478688 -1.521491 74.444889 0.000000 0.000000 0.000000 -19.660013 -6.231050 -98.602387 0.000000 0.000000 0.000000 29.628501 -1.493609 4.124305 -29.355629 -2.184644 -28.919865 8.130228 19.041771 137.196660 0.000000 0.000000 0.000000 -35.399182 -6.674295 12.976514 25.288601 4.488861 -22.037662 -12.002053 -24.529632 127.089965 
0.004241 1.045418 -0.106970 1.276085 -8.744957 3.799030 0.000000 0.000000 0.000000 -4.077232 -1.153577 -5.213939 10.156127 1.589094 -18.978697 27.063042 55.563669 111.529400 0.000000 0.000000 0.000000 3.816098 0.819645 -5.376868 -6.748927 -1.873675 -28.554014 -71.356718 -39.435314 141.634506 0.000000 0.000000 0.000000 3.076895 2.930002 -29.659424 -8.264155 -1.137284 -26.075987 13.138235 -2.270039 72.313148 0.000000 0.000000 0.000000 -29.516391 -9.122781 -93.771149 0.000000 0.000000 0.000000 24.730201 -1.666446 3.499587 -26.023519 -1.819282 -27.481407 5.374084 22.239465 133.999830 0.000000 0.000000 0.000000 -43.278673 -8.815252 16.804649 31.186043 7.287463 -26.443241 -9.880040 -23.620944 125.865653 
0.004892 1.069649 -0.112310 0.893389 -8.574098 3.695252 0.000000 0.000000 0.000000 -2.686337 -1.612194 -6.771553 8.288665 0.739600 -13.439507 8.897004 52.526523 100.157696 0.000000 0.000000 0.000000 3.198834 1.259993 -7.533515 -5.647913 -1.216706 -21.232106 -49.329517 -43.282721 127.407040 0.000000 0.000000 0.000000 5.170303 3.338084 -31.584179 -11.278328 -1.007856 -23.111446 14.304465 -2.820323 71.642272 0.000000 0.000000 0.000000 -35.961680 -10.642562 -90.744092 0.000000 0.000000 0.000000 25.439876 0.294393 5.039595 -26.410450 -2.915790 -30.949759 4.726630 22.889916 136.240713 0.000000 0.000000 0.000000 -49.358599 -9.135052 18.716501 35.801371 8.894791 -27.451513 -11.845998 -21.237453 127.619998 
0.004690 1.091281 -0.118271 1.209457 -8.604646 3.354407 0.000000 0.000000 0.000000 -2.280369 -1.816856 -7.528551 6.520945 0.434081 -11.076253 4.915173 51.386724 97.151474 0.000000 0.000000 0.000000 2.112820 1.541953 -9.019552 -4.906189 -0.895661 -17.405756 -42.328073 -42.619625 127.040295 0.000000 0.000000 0.000000 4.860004 3.294949 -31.418472 -11.436482 -0.968697 -22.728633 15.469368 -3.509680 70.989690 0.000000 0.000000 0.000000 -43.077728 -11.677225 -86.846038 0.000000 0.000000 0.000000 24.937197 -0.722728 4.197713 -25.485355 -2.942646 -31.187166 0.069757 27.364890 135.342185 0.000000 0.000000 0.000000 -52.553946 -10.450328 21.073094 38.118382 10.138785 -28.460191 -15.330022 -18.093032 128.142656 
0.003304 1.097428 -0.128873 1.457192 -9.138346 3.786696 0.000000 0.000000 0.000000 -2.159966 -2.240080 -9.188937 6.044340 0.220069 -8.825193 4.262783 52.079085 100.430780 0.000000 0.000000 0.000000 2.206008 1.830152 -10.501776 -5.254310 -0.939857 -18.054566 -45.631395 -41.779277 131.167184 0.000000 0.000000 0.000000 4.320465 2.868142 -28.827159 -10.211548 -1.239181 -26.293072 13.665040 -3.244679 71.753967 0.000000 0.000000 0.000000 -40.583889 -12.395244 -91.146563 0.000000 0.000000 0.000000 26.103153 0.669837 5.249544 -25.488359 -2.620756 -30.063400 -3.017032 29.072174 131.581472 0.000000 0.000000 0.000000 -49.796228 -10.660188 20.651463 38.951716 8.951227 -26.201283 -17.404833 -16.008508 123.586789 
0.004388 1.091818 -0.126420 1.548209 -8.922307 4.152737 0.000000 0.000000 0.000000 -3.064354 -2.345716 -9.589300 7.605937 0.278615 -9.412764 -7.319311 48.626518 94.541340 0.000000 0.000000 0.000000 2.516361 1.829655 -10.461285 -6.674519 -1.102558 -19.727577 -32.723658 -41.222295 128.834667 0.000000 0.000000 0.000000 4.150634 2.542459 -26.776540 -8.379878 -1.406647 -29.850893 11.067484 -1.400701 73.529981 0.000000 0.000000 0.000000 -30.737413 -11.555561 -99.362288 0.000000 0.000000 0.000000 27.010733 1.530153 6.148429 -24.573405 -2.241570 -29.181333 -2.179426 28.391957 130.580973 0.000000 0.000000 0.000000 -44.604236 -9.158087 17.383785 35.371171 8.183737 -26.878321 -15.640832 -18.100366 124.620275 
0.005979 1.070248 -0.122877 1.476531 -8.987690 4.898583 0.000000 0.000000 0.000000 -4.147155 -2.201382 -9.058766 9.609052 0.659704 -12.346959 -2.901857 49.986728 96.331382 0.000000 0.000000 0.000000 2.933368 1.719649 -9.881549 -7.380443 -1.470811 -23.506889 -41.214448 -41.433103 131.558049 0.000000 0.000000 0.000000 2.624164 2.505743 -26.733599 -5.370410 -1.174969 -31.041683 8.163364 -0.183371 74.374721 0.000000 0.000000 0.000000 -19.730626 -7.821549 -106.524127 0.000000 0.000000 0.000000 30.024912 3.851916 8.297796 -29.023790 -3.742813 -33.304047 1.164738 24.469329 133.472865 0.000000 0.000000 0.000000 -40.301648 -7.865128 15.176511 32.488463 6.627891 -25.018440 -13.370264 -20.217704 121.621593 
